<svg width="42" height="42" viewBox="0 0 42 42" fill="none" xmlns="http://www.w3.org/2000/svg">
<path d="M38.868 21.1314C38.868 19.6401 38.7446 18.5519 38.4773 17.4233H21.1006V24.1543H31.3004C31.0948 25.8271 29.9843 28.3462 27.5166 30.0389L27.482 30.2643L32.9762 34.4354L33.3568 34.4726C36.8527 31.3086 38.868 26.6533 38.868 21.1314Z" fill="#4285F4"/>
<path d="M21.0995 38.8662C26.0965 38.8662 30.2915 37.2538 33.3556 34.4728L27.5154 30.039C25.9526 31.1072 23.855 31.8528 21.0995 31.8528C16.2053 31.8528 12.0514 28.6889 10.5706 24.3157L10.3536 24.3337L4.64066 28.6667L4.56595 28.8702C7.6094 34.7951 13.8609 38.8662 21.0995 38.8662Z" fill="#34A853"/>
<path d="M10.5717 24.3158C10.181 23.1873 9.95486 21.978 9.95486 20.7286C9.95486 19.479 10.181 18.2699 10.5511 17.1414L10.5408 16.901L4.75626 12.4985L4.567 12.5868C3.31265 15.0454 2.5929 17.8064 2.5929 20.7286C2.5929 23.6507 3.31265 26.4116 4.567 28.8703L10.5717 24.3158Z" fill="#FBBC05"/>
<path d="M21.0996 9.60421C24.5749 9.60421 26.9191 11.0754 28.2559 12.3048L33.4791 7.30683C30.2712 4.38468 26.0966 2.59106 21.0996 2.59106C13.8609 2.59106 7.60941 6.66191 4.56595 12.5868L10.5501 17.1414C12.0514 12.7682 16.2053 9.60421 21.0996 9.60421Z" fill="#EB4335"/>
</svg>
