<svg width="17" height="17" viewBox="0 0 17 17" fill="none" xmlns="http://www.w3.org/2000/svg">
<path d="M13.0032 7.2296V4.53742C13.0104 3.31927 12.5238 2.14798 11.6553 1.29383C10.8155 0.457706 9.71632 0 8.55223 0C8.53421 0 8.51259 0 8.49457 0C6.01142 0.00360399 3.99319 2.03625 3.99319 4.53742V7.2296C3.05616 7.34132 2.3714 8.12699 2.3714 9.07844V15.1259C2.3714 16.1531 3.19311 17 4.22024 17H12.7797C13.8068 17 14.6286 16.1531 14.6286 15.1259V9.07844C14.6249 8.13059 13.9402 7.34132 13.0032 7.2296ZM4.71039 4.53742H4.71399C4.71399 2.43269 6.41147 0.709985 8.49817 0.709985H8.50178C9.49287 0.706381 10.4443 1.09922 11.1471 1.79839C11.8787 2.52279 12.286 3.51028 12.2788 4.53742V7.2332H11.4859V4.53742C11.4931 3.71931 11.1687 2.93364 10.5885 2.35701C10.0407 1.8092 9.29826 1.49926 8.5234 1.49926H8.50178C6.84394 1.49926 5.50326 2.86156 5.50326 4.53381V7.2332H4.71039V4.53742ZM10.7687 4.53742V7.2332H6.22766V4.53742C6.22766 3.26161 7.24399 2.22366 8.50538 2.22366H8.52701C9.11085 2.22366 9.67307 2.45792 10.0875 2.87238C10.5272 3.31206 10.7759 3.91393 10.7687 4.53742ZM13.9402 15.1367C13.9402 15.7674 13.4284 16.2792 12.7977 16.2792H4.23466C3.60396 16.2792 3.0922 15.7674 3.0922 15.1367V9.09646C3.0922 8.46576 3.60396 7.954 4.23466 7.954H12.7977C13.4284 7.954 13.9402 8.46576 13.9402 9.09646V15.1367Z" fill="#000842"/>
<path d="M9.74516 11.8932C9.58659 11.3345 9.07843 10.9525 8.49818 10.9525C7.78099 10.9525 7.19714 11.5328 7.19714 12.2536C7.19714 12.8338 7.57917 13.342 8.13778 13.5005V14.5096C8.13778 14.7079 8.29996 14.87 8.49818 14.87C8.6964 14.87 8.85858 14.7079 8.85858 14.5096V13.5005C9.54694 13.3023 9.94699 12.5815 9.74516 11.8932ZM8.49818 12.8302C8.17743 12.8302 7.91794 12.5707 7.91794 12.2499C7.91794 11.9292 8.17743 11.6697 8.49818 11.6697C8.81894 11.6697 9.07842 11.9292 9.07842 12.2499C9.07842 12.5707 8.81894 12.8302 8.49818 12.8302Z" fill="#000842"/>
</svg>
